<mxfile host="app.diagrams.net" modified="2023-04-20T14:27:40.383Z" agent="Mozilla/5.0 (X11; Linux x86_64) AppleWebKit/537.36 (KHTML, like Gecko) Chrome/104.0.5112.81 Safari/537.36" etag="wcXuRVDyhOL7AbJwEUfz" version="21.1.5" type="github">
  <diagram id="C5RBs43oDa-KdzZeNtuy" name="Page-1">
    <mxGraphModel dx="937" dy="514" grid="1" gridSize="10" guides="1" tooltips="1" connect="1" arrows="1" fold="1" page="1" pageScale="1" pageWidth="827" pageHeight="1169" math="0" shadow="0">
      <root>
        <mxCell id="WIyWlLk6GJQsqaUBKTNV-0" />
        <mxCell id="WIyWlLk6GJQsqaUBKTNV-1" parent="WIyWlLk6GJQsqaUBKTNV-0" />
        <mxCell id="l1KpTBiiVYSyApMP4u7i-6" value="Task Name" style="strokeWidth=1;fontStyle=0;html=1;" vertex="1" parent="WIyWlLk6GJQsqaUBKTNV-1">
          <mxGeometry x="20.000000000000114" y="70" width="320" height="20" as="geometry" />
        </mxCell>
        <mxCell id="l1KpTBiiVYSyApMP4u7i-10" value="Jan" style="strokeWidth=1;fontStyle=0;html=1;" vertex="1" parent="WIyWlLk6GJQsqaUBKTNV-1">
          <mxGeometry x="340.0000000000001" y="70" width="70" height="20" as="geometry" />
        </mxCell>
        <mxCell id="l1KpTBiiVYSyApMP4u7i-11" value="Feb" style="strokeWidth=1;fontStyle=0;html=1;" vertex="1" parent="WIyWlLk6GJQsqaUBKTNV-1">
          <mxGeometry x="410.0000000000001" y="70" width="70" height="20" as="geometry" />
        </mxCell>
        <mxCell id="l1KpTBiiVYSyApMP4u7i-12" value="Mar" style="strokeWidth=1;fontStyle=0;html=1;" vertex="1" parent="WIyWlLk6GJQsqaUBKTNV-1">
          <mxGeometry x="480.0000000000001" y="70" width="70" height="20" as="geometry" />
        </mxCell>
        <mxCell id="l1KpTBiiVYSyApMP4u7i-13" value="Apr" style="strokeWidth=1;fontStyle=0;html=1;" vertex="1" parent="WIyWlLk6GJQsqaUBKTNV-1">
          <mxGeometry x="550.0000000000001" y="70" width="70" height="20" as="geometry" />
        </mxCell>
        <mxCell id="l1KpTBiiVYSyApMP4u7i-14" value="May" style="strokeWidth=1;fontStyle=0;html=1;" vertex="1" parent="WIyWlLk6GJQsqaUBKTNV-1">
          <mxGeometry x="620.0000000000001" y="70" width="70" height="20" as="geometry" />
        </mxCell>
        <mxCell id="l1KpTBiiVYSyApMP4u7i-15" value="June" style="strokeWidth=1;fontStyle=0;html=1;" vertex="1" parent="WIyWlLk6GJQsqaUBKTNV-1">
          <mxGeometry x="690.0000000000001" y="70" width="70" height="20" as="geometry" />
        </mxCell>
        <mxCell id="l1KpTBiiVYSyApMP4u7i-16" value="July" style="strokeWidth=1;fontStyle=0;html=1;" vertex="1" parent="WIyWlLk6GJQsqaUBKTNV-1">
          <mxGeometry x="760.0000000000001" y="70" width="70" height="20" as="geometry" />
        </mxCell>
        <mxCell id="l1KpTBiiVYSyApMP4u7i-17" value="Aug" style="strokeWidth=1;fontStyle=0;html=1;" vertex="1" parent="WIyWlLk6GJQsqaUBKTNV-1">
          <mxGeometry x="830.0000000000001" y="70" width="70" height="20" as="geometry" />
        </mxCell>
        <mxCell id="l1KpTBiiVYSyApMP4u7i-18" value="Sept" style="strokeWidth=1;fontStyle=0;html=1;" vertex="1" parent="WIyWlLk6GJQsqaUBKTNV-1">
          <mxGeometry x="900.0000000000001" y="70" width="70" height="20" as="geometry" />
        </mxCell>
        <mxCell id="l1KpTBiiVYSyApMP4u7i-19" value="Oct" style="strokeWidth=1;fontStyle=0;html=1;" vertex="1" parent="WIyWlLk6GJQsqaUBKTNV-1">
          <mxGeometry x="970.0000000000001" y="70" width="70" height="20" as="geometry" />
        </mxCell>
        <mxCell id="l1KpTBiiVYSyApMP4u7i-20" value="Nov" style="strokeWidth=1;fontStyle=0;html=1;" vertex="1" parent="WIyWlLk6GJQsqaUBKTNV-1">
          <mxGeometry x="1040" y="70" width="70" height="20" as="geometry" />
        </mxCell>
        <mxCell id="l1KpTBiiVYSyApMP4u7i-21" value="Dec" style="strokeWidth=1;fontStyle=0;html=1;" vertex="1" parent="WIyWlLk6GJQsqaUBKTNV-1">
          <mxGeometry x="1110" y="70" width="70" height="20" as="geometry" />
        </mxCell>
      </root>
    </mxGraphModel>
  </diagram>
</mxfile>
